<svg id="Layer_1" data-name="Layer 1" xmlns="http://www.w3.org/2000/svg" viewBox="0 0 199 239.83"><defs><style>.cls-1{fill:#eefbfb;}</style></defs><path class="cls-1" d="M520.31,392.09A7.71,7.71,0,0,0,513,399.9V425a26.33,26.33,0,0,1-9.11,19.94,5.91,5.91,0,0,1-9.8-4.44V399.9a7.71,7.71,0,0,0-7.27-7.81,7.5,7.5,0,0,0-7.73,7.49v40.87a5.91,5.91,0,0,1-9.8,4.44A26.33,26.33,0,0,1,460.22,425V399.9a7.71,7.71,0,0,0-7.27-7.81,7.5,7.5,0,0,0-7.73,7.49V425a41.47,41.47,0,0,0,24.71,37.89,15.72,15.72,0,0,1,9.2,14.43V495.5h15V477.27a15.72,15.72,0,0,1,9.2-14.43A41.47,41.47,0,0,0,528,425V399.58A7.5,7.5,0,0,0,520.31,392.09Z" transform="translate(-412.5 -392.08)"/><path class="cls-1" d="M479.13,553.35a7.5,7.5,0,0,0,15,0V502.54h-15Z" transform="translate(-412.5 -392.08)"/><path class="cls-1" d="M540.56,444a7.5,7.5,0,0,0-7.5,7.5v46.76h15V451.48A7.5,7.5,0,0,0,540.56,444Z" transform="translate(-412.5 -392.08)"/><path class="cls-1" d="M561.46,541.85c-.72-.42-1.46-.82-2.2-1.2a20.43,20.43,0,0,1-11.2-18.25V504.5h-15v17.9a20.44,20.44,0,0,1-11.21,18.25c-.74.38-1.48.78-2.2,1.2-15.34,9-23,27-18.95,44.87,6.44,28.72,21,45.2,39.86,45.2s33.41-16.48,39.86-45.2C584.42,568.87,576.81,550.84,561.46,541.85Zm4.32,41.58c-2.26,10.07-9.24,33.49-25.22,33.49s-23-23.42-25.23-33.49c-2.57-11.45,2.21-23,11.9-28.63a26.46,26.46,0,0,1,26.65,0C563.57,560.47,568.35,572,565.78,583.43Z" transform="translate(-412.5 -392.08)"/><path class="cls-1" d="M596.69,425.73a16.82,16.82,0,0,0-16.86,24.62L545.92,498a12.41,12.41,0,0,0-4.22-1.33,12.2,12.2,0,0,0-12.94,8l-29.35-12a12.2,12.2,0,1,0-23.16,7.11l-41.07,42.64a17.26,17.26,0,0,0-3.84-.94,16.86,16.86,0,1,0,13.81,11l38.35-46.05a12.22,12.22,0,0,0,14.26-5.13l30.87,11.2a12.19,12.19,0,0,0,23.71-2.25,12,12,0,0,0-.69-5.74l39-45.72a19.53,19.53,0,0,0,2,.39,16.83,16.83,0,1,0,4-33.41Z" transform="translate(-412.5 -392.08)"/></svg>