<?xml version="1.0" encoding="utf-8"?>
<!-- Generator: Adobe Illustrator 25.2.3, SVG Export Plug-In . SVG Version: 6.00 Build 0)  -->
<svg version="1.1" id="Layer_1" xmlns="http://www.w3.org/2000/svg" xmlns:xlink="http://www.w3.org/1999/xlink" x="0px" y="0px"
	 viewBox="0 0 1024 1024" style="enable-background:new 0 0 1024 1024;" xml:space="preserve">
<style type="text/css">
	.st0{fill:#EEFBFB;}
</style>
<g>
	<g>
		<g>
			<path class="st0" d="M547.09,5.72C529.76,6.24,516.4,21.36,516.4,38.7l0,105.78c0,33.57-14.92,63.72-38.47,84.17
				c-16.18,14.05-41.38,2.68-41.38-18.75l0-171.21c0-17.34-13.36-32.46-30.69-32.98c-17.93-0.54-32.64,13.84-32.64,31.65v172.53
				c0,21.43-25.2,32.8-41.38,18.75c-23.55-20.45-38.47-50.6-38.47-84.17V38.7c0-17.34-13.36-32.46-30.69-32.98
				c-17.93-0.54-32.64,13.84-32.64,31.65v107.11c0,71.33,42.95,132.79,104.33,159.94c23.9,10.57,38.85,34.8,38.85,60.94v76.97h63.33
				v-76.97c0-26.14,14.94-50.37,38.85-60.94c61.39-27.16,104.33-88.61,104.33-159.94V37.37C579.73,19.56,565.02,5.19,547.09,5.72z"
				/>
			<g>
				<path class="st0" d="M373.21,686.57c0,17.49,14.18,31.67,31.67,31.67c17.49,0,31.67-14.18,31.67-31.67v-214.5h-63.33V686.57z"/>
				<path class="st0" d="M632.56,224.81c-17.49,0-31.67,14.18-31.67,31.67v215.6h63.33v-215.6
					C664.23,238.99,650.05,224.81,632.56,224.81z"/>
			</g>
			<path class="st0" d="M720.84,638.05c-3.06-1.79-6.16-3.48-9.32-5.07c-29.05-14.67-47.29-44.51-47.29-77.05v-75.59H600.9v75.59
				c0,32.54-18.24,62.38-47.29,77.05c-3.15,1.59-6.26,3.28-9.31,5.07c-64.78,37.94-96.93,114.07-80.02,189.42
				c27.22,121.27,88.56,190.82,168.29,190.82c79.72,0,141.06-69.55,168.29-190.82C817.77,752.12,785.61,675.99,720.84,638.05z
				 M739.06,813.6c-9.55,42.5-39.03,141.36-106.5,141.36c-67.48,0-96.95-98.86-106.5-141.36c-10.86-48.35,9.33-96.94,50.24-120.9
				c16.98-9.95,36.44-15.21,56.26-15.21c19.82,0,39.28,5.26,56.26,15.21C729.73,716.66,749.91,765.24,739.06,813.6z"/>
		</g>
		<g>
			<path class="st0" d="M869.55,147.75c-38.95-4.7-74.34,23.07-79.04,62.02c-1.81,15.03,1.25,29.51,7.89,41.93L655.2,452.77
				c-5.41-2.85-11.39-4.83-17.82-5.61c-24.33-2.93-46.7,11.63-54.61,33.77l-123.94-50.79c-3.99-21.56-21.56-38.97-44.47-41.74
				c-28.23-3.4-53.88,16.72-57.29,44.96c-1.14,9.48,0.42,18.64,3.99,26.79L187.64,640.2c-5.13-1.9-10.52-3.3-16.18-3.98
				c-38.95-4.7-74.34,23.07-79.03,62.02c-4.7,38.95,23.07,74.34,62.02,79.03c38.95,4.7,74.34-23.07,79.04-62.02
				c1.37-11.38-0.09-22.42-3.73-32.52L391.66,488.3c3.3,1.12,6.76,1.92,10.36,2.35c20.52,2.48,39.64-7.52,49.88-23.99l130.3,47.28
				c5.95,18.58,22.21,32.98,42.85,35.46c28.23,3.4,53.88-16.72,57.29-44.96c1.02-8.49-0.11-16.74-2.93-24.22l164.5-193.05
				c2.82,0.7,5.68,1.29,8.63,1.64c38.95,4.7,74.34-23.07,79.04-62.02C936.27,187.83,908.5,152.45,869.55,147.75z"/>
		</g>
	</g>
</g>
</svg>
