<svg id="visual" viewBox="0 0 960 540" width="960" height="540" xmlns="http://www.w3.org/2000/svg" xmlns:xlink="http://www.w3.org/1999/xlink" version="1.1"><rect x="0" y="0" width="960" height="540" fill="#132232"></rect><defs><linearGradient id="grad1_0" x1="43.8%" y1="0%" x2="100%" y2="100%"><stop offset="14.444444444444446%" stop-color="#132232" stop-opacity="1"></stop><stop offset="85.55555555555554%" stop-color="#132232" stop-opacity="1"></stop></linearGradient></defs><defs><linearGradient id="grad2_0" x1="0%" y1="0%" x2="56.3%" y2="100%"><stop offset="14.444444444444446%" stop-color="#132232" stop-opacity="1"></stop><stop offset="85.55555555555554%" stop-color="#132232" stop-opacity="1"></stop></linearGradient></defs><g transform="translate(960, 0)"><path d="M0 459C-65.9 461.3 -131.8 463.6 -175.7 424.1C-219.5 384.6 -241.4 303.3 -243.2 243.2C-245.1 183.2 -227 144.5 -259.6 107.5C-292.2 70.5 -375.6 35.3 -459 0L0 0Z" fill="#203647"></path></g><g transform="translate(0, 540)"><path d="M0 -459C44.4 -421 88.9 -383 152.7 -368.6C216.5 -354.3 299.6 -363.5 324.6 -324.6C349.5 -285.6 316.2 -198.4 328.9 -136.2C341.6 -74.1 400.3 -37.1 459 0L0 0Z" fill="#203647"></path></g></svg>