<svg id="visual" viewBox="0 0 960 540" width="960" height="540" xmlns="http://www.w3.org/2000/svg" xmlns:xlink="http://www.w3.org/1999/xlink" version="1.1"><rect x="0" y="0" width="960" height="540" fill="#132232"></rect><defs><linearGradient id="grad1_0" x1="43.8%" y1="0%" x2="100%" y2="100%"><stop offset="14.444444444444446%" stop-color="#132232" stop-opacity="1"></stop><stop offset="85.55555555555554%" stop-color="#132232" stop-opacity="1"></stop></linearGradient></defs><defs><linearGradient id="grad2_0" x1="0%" y1="0%" x2="56.3%" y2="100%"><stop offset="14.444444444444446%" stop-color="#132232" stop-opacity="1"></stop><stop offset="85.55555555555554%" stop-color="#132232" stop-opacity="1"></stop></linearGradient></defs><g transform="translate(960, 0)"><path d="M0 405C-78.5 398.9 -157.1 392.7 -202.5 350.7C-247.9 308.8 -260.2 230.9 -288.4 166.5C-316.6 102.1 -360.8 51 -405 0L0 0Z" fill="#203647"></path></g><g transform="translate(0, 540)"><path d="M0 -405C75.8 -397.3 151.6 -389.5 202.5 -350.7C253.4 -312 279.6 -242.1 309.2 -178.5C338.8 -114.9 371.9 -57.4 405 0L0 0Z" fill="#203647"></path></g></svg>