<svg id="visual" viewBox="0 0 960 540" width="960" height="540" xmlns="http://www.w3.org/2000/svg" xmlns:xlink="http://www.w3.org/1999/xlink" version="1.1"><rect x="0" y="0" width="960" height="540" fill="#132232"></rect><defs><linearGradient id="grad1_0" x1="43.8%" y1="0%" x2="100%" y2="100%"><stop offset="14.444444444444446%" stop-color="#132232" stop-opacity="1"></stop><stop offset="85.55555555555554%" stop-color="#132232" stop-opacity="1"></stop></linearGradient></defs><defs><linearGradient id="grad2_0" x1="0%" y1="0%" x2="56.3%" y2="100%"><stop offset="14.444444444444446%" stop-color="#132232" stop-opacity="1"></stop><stop offset="85.55555555555554%" stop-color="#132232" stop-opacity="1"></stop></linearGradient></defs><g transform="translate(960, 0)"><path d="M0 378C-62.5 382.1 -125.1 386.3 -140.4 339.1C-155.8 291.9 -124.1 193.4 -160.5 160.5C-197 127.7 -301.6 160.5 -349.2 144.7C-396.8 128.8 -387.4 64.4 -378 0L0 0Z" fill="#203647"></path></g><g transform="translate(0, 540)"><path d="M0 -378C61.7 -387.2 123.4 -396.5 144.7 -349.2C165.9 -302 146.8 -198.3 149.2 -149.2C151.6 -100.1 175.4 -105.7 217.1 -89.9C258.8 -74.2 318.4 -37.1 378 0L0 0Z" fill="#203647"></path></g></svg>