<svg id="visual" viewBox="0 0 960 540" width="960" height="540" xmlns="http://www.w3.org/2000/svg" xmlns:xlink="http://www.w3.org/1999/xlink" version="1.1"><rect x="0" y="0" width="960" height="540" fill="#132232"></rect><path d="M860 540L850.5 525C841 510 822 480 794.5 450C767 420 731 390 730.8 360C730.7 330 766.3 300 733.8 270C701.3 240 600.7 210 584.8 180C569 150 638 120 636 90C634 60 561 30 524.5 15L488 0L960 0L960 15C960 30 960 60 960 90C960 120 960 150 960 180C960 210 960 240 960 270C960 300 960 330 960 360C960 390 960 420 960 450C960 480 960 510 960 525L960 540Z" fill="#203647" stroke-linecap="round" stroke-linejoin="miter"></path></svg>