<svg id="visual" viewBox="0 0 900 600" width="900" height="600" xmlns="http://www.w3.org/2000/svg" xmlns:xlink="http://www.w3.org/1999/xlink" version="1.1"><rect x="0" y="0" width="900" height="600" fill="#132232"></rect><path d="M0 74L15 87.8C30 101.7 60 129.3 90 129C120 128.7 150 100.3 180 85C210 69.7 240 67.3 270 85.7C300 104 330 143 360 148.8C390 154.7 420 127.3 450 136.7C480 146 510 192 540 213.8C570 235.7 600 233.3 630 229.8C660 226.3 690 221.7 720 197.8C750 174 780 131 810 126.7C840 122.3 870 156.7 885 173.8L900 191L900 0L885 0C870 0 840 0 810 0C780 0 750 0 720 0C690 0 660 0 630 0C600 0 570 0 540 0C510 0 480 0 450 0C420 0 390 0 360 0C330 0 300 0 270 0C240 0 210 0 180 0C150 0 120 0 90 0C60 0 30 0 15 0L0 0Z" fill="#203647" stroke-linecap="round" stroke-linejoin="miter"></path></svg>